<svg width="233" height="52" viewBox="0 0 233 52" fill="none" xmlns="http://www.w3.org/2000/svg">
<circle cx="26.5" cy="26" r="25.5" fill="white" stroke="#00D047" stroke-dasharray="6 6"/>
<path d="M15.6441 30.642V22.758H17.1561V30.642H15.6441ZM12.3681 27.42V25.998H20.4321V27.42H12.3681ZM22.0762 33V31.776L27.2062 26.826C27.6622 26.394 27.9982 26.016 28.2142 25.692C28.4422 25.356 28.5922 25.05 28.6642 24.774C28.7482 24.486 28.7902 24.21 28.7902 23.946C28.7902 23.298 28.5622 22.788 28.1062 22.416C27.6502 22.044 26.9842 21.858 26.1082 21.858C25.4362 21.858 24.8302 21.972 24.2902 22.2C23.7502 22.416 23.2822 22.758 22.8862 23.226L21.6622 22.164C22.1422 21.552 22.7842 21.084 23.5882 20.76C24.4042 20.424 25.2982 20.256 26.2702 20.256C27.1462 20.256 27.9082 20.4 28.5562 20.688C29.2042 20.964 29.7022 21.366 30.0502 21.894C30.4102 22.422 30.5902 23.046 30.5902 23.766C30.5902 24.174 30.5362 24.576 30.4282 24.972C30.3202 25.368 30.1162 25.788 29.8162 26.232C29.5162 26.676 29.0842 27.174 28.5202 27.726L23.9482 32.136L23.5162 31.434H31.1302V33H22.0762ZM34.7881 30.696L34.8241 28.482L40.3141 23.46H42.4021L38.1901 27.6L37.2541 28.392L34.7881 30.696ZM33.3841 33V19.644H35.1121V33H33.3841ZM40.6741 33L36.9301 28.356L38.0461 26.97L42.7981 33H40.6741Z" fill="black"/>
</svg>
