<svg width="223" height="204" viewBox="0 0 223 204" fill="none" xmlns="http://www.w3.org/2000/svg">
<g filter="url(#filter0_i_2_55)">
<path d="M223 102C223 86.294 219.035 70.8001 211.415 56.7261C203.794 42.652 192.724 30.3779 179.066 20.8605C165.408 11.3431 149.533 4.83945 132.676 1.85651C115.82 -1.12643 98.4385 -0.508088 81.8863 3.66334L100.144 64.2892C106.491 62.6895 113.157 62.4524 119.621 63.5963C126.085 64.7402 132.173 67.2343 137.411 70.8841C142.648 74.5339 146.894 79.2408 149.816 84.638C152.738 90.0353 154.259 95.977 154.259 102H223Z" fill="#FE9347"/>
</g>
<g filter="url(#filter1_i_2_55)">
<path d="M81.952 3.64679C64.9116 7.93099 49.2284 15.8592 36.1956 26.7777L82.6217 73.1532C87.6197 68.9661 93.6339 65.9258 100.169 64.2828L81.952 3.64679Z" fill="#ECDF5D"/>
</g>
<g filter="url(#filter2_i_2_55)">
<path d="M36.2995 26.6908C24.8685 36.243 15.7375 47.8683 9.48785 60.8262C3.23822 73.7842 0.00701137 87.7908 1.13965e-05 101.954L68.7412 101.982C68.7439 96.5509 69.983 91.1796 72.3797 86.2104C74.7763 81.2412 78.278 76.7831 82.6616 73.1199L36.2995 26.6908Z" fill="#7DA815"/>
</g>
<rect x="4" y="99" width="13" height="3" fill="#49820E"/>
<rect x="24.9575" y="48" width="13" height="3" transform="rotate(40.7307 24.9575 48)" fill="#49820E"/>
<rect x="69.8589" y="15" width="13" height="3" transform="rotate(69.9032 69.8589 15)" fill="#A4A80B"/>
<rect x="124.22" y="7.38284" width="13" height="3" transform="rotate(97.3316 124.22 7.38284)" fill="#82620E"/>
<rect x="176.833" y="26.4235" width="13" height="3" transform="rotate(126.367 176.833 26.4235)" fill="#82620E"/>
<rect x="209.371" y="73.1648" width="13" height="3" transform="rotate(162.288 209.371 73.1648)" fill="#82620E"/>
<rect x="8.41284" y="95.4632" width="8.68214" height="1.78221" transform="rotate(3.28418 8.41284 95.4632)" fill="#64980E"/>
<rect x="31.1421" y="45.8521" width="8.68214" height="1.78221" transform="rotate(39.854 31.1421 45.8521)" fill="#64980E"/>
<rect x="75.644" y="16.9323" width="8.68214" height="1.78221" transform="rotate(67.2824 75.644 16.9323)" fill="#C5B30E"/>
<rect x="129.727" y="11.1962" width="8.68214" height="1.78221" transform="rotate(96.3179 129.727 11.1962)" fill="#98690E"/>
<rect x="180.156" y="33.198" width="8.68214" height="1.78221" transform="rotate(132.238 180.156 33.198)" fill="#98690E"/>
<rect x="209.778" y="78.6796" width="8.68214" height="1.78221" transform="rotate(160.455 209.778 78.6796)" fill="#98690E"/>
<rect x="15.686" y="69.8686" width="8.68214" height="1.78221" transform="rotate(22.64 15.686 69.8686)" fill="#64980E"/>
<rect x="51.3425" y="28.3865" width="8.68214" height="1.78221" transform="rotate(53.9414 51.3425 28.3865)" fill="#C5B30E"/>
<rect x="101.619" y="10.7351" width="8.68214" height="1.78221" transform="rotate(81.3698 101.619 10.7351)" fill="#98690E"/>
<rect x="155.445" y="18.385" width="8.68214" height="1.78221" transform="rotate(110.405 155.445 18.385)" fill="#98690E"/>
<rect x="196.766" y="54.1079" width="8.68214" height="1.78221" transform="rotate(146.326 196.766 54.1079)" fill="#98690E"/>
<rect x="9.24487" y="91" width="8.68214" height="1.78221" transform="rotate(7.89528 9.24487 91)" fill="#64980E"/>
<rect x="34.4692" y="42.7633" width="8.68214" height="1.78221" transform="rotate(44.4651 34.4692 42.7633)" fill="#64980E"/>
<rect x="80.02" y="15.7233" width="8.68214" height="1.78221" transform="rotate(71.8935 80.02 15.7233)" fill="#C5B30E"/>
<rect x="134.139" y="12.263" width="8.68214" height="1.78221" transform="rotate(100.929 134.139 12.263)" fill="#98690E"/>
<rect x="183.104" y="36.6509" width="8.68214" height="1.78221" transform="rotate(136.849 183.104 36.6509)" fill="#98690E"/>
<rect x="210.744" y="83.1161" width="8.68214" height="1.78221" transform="rotate(165.066 210.744 83.1161)" fill="#98690E"/>
<rect x="17.9502" y="65.9334" width="8.68214" height="1.78221" transform="rotate(27.2511 17.9502 65.9334)" fill="#64980E"/>
<rect x="55.3213" y="26.2003" width="8.68214" height="1.78221" transform="rotate(58.5525 55.3213 26.2003)" fill="#C5B30E"/>
<rect x="106.157" y="10.6276" width="8.68214" height="1.78221" transform="rotate(85.9809 106.157 10.6276)" fill="#98690E"/>
<rect x="159.465" y="20.4934" width="8.68214" height="1.78221" transform="rotate(115.016 159.465 20.4934)" fill="#98690E"/>
<rect x="198.785" y="58.1737" width="8.68214" height="1.78221" transform="rotate(150.937 198.785 58.1737)" fill="#98690E"/>
<rect x="10.2" y="86" width="8.68214" height="1.78221" transform="rotate(14.33 10.2 86)" fill="#64980E"/>
<rect x="38.2739" y="39.3197" width="8.68214" height="1.78221" transform="rotate(45.6313 38.2739 39.3197)" fill="#64980E"/>
<rect x="84.9832" y="14.4195" width="8.68214" height="1.78221" transform="rotate(73.0597 84.9832 14.4195)" fill="#C5B30E"/>
<rect x="139.112" y="13.5319" width="8.68214" height="1.78221" transform="rotate(102.095 139.112 13.5319)" fill="#98690E"/>
<rect x="186.386" y="40.5954" width="8.68214" height="1.78221" transform="rotate(138.016 186.386 40.5954)" fill="#98690E"/>
<rect x="211.77" y="88.1435" width="8.68214" height="1.78221" transform="rotate(166.233 211.77 88.1435)" fill="#98690E"/>
<rect x="20.5085" y="61.5326" width="8.68214" height="1.78221" transform="rotate(33.6858 20.5085 61.5326)" fill="#64980E"/>
<rect x="59.7937" y="23.7693" width="8.68214" height="1.78221" transform="rotate(64.9871 59.7937 23.7693)" fill="#C5B30E"/>
<rect x="111.247" y="10.5299" width="8.68214" height="1.78221" transform="rotate(92.4155 111.247 10.5299)" fill="#98690E"/>
<rect x="163.962" y="22.8784" width="8.68214" height="1.78221" transform="rotate(121.451 163.962 22.8784)" fill="#98690E"/>
<rect x="201.027" y="62.7434" width="8.68214" height="1.78221" transform="rotate(157.372 201.027 62.7434)" fill="#98690E"/>
<rect x="11.5991" y="80.7044" width="8.68214" height="1.78221" transform="rotate(18.665 11.5991 80.7044)" fill="#64980E"/>
<rect x="42.2207" y="35.5218" width="8.68214" height="1.78221" transform="rotate(49.9663 42.2207 35.5218)" fill="#64980E"/>
<rect x="90.2358" y="12.8665" width="8.68214" height="1.78221" transform="rotate(77.3947 90.2358 12.8665)" fill="#98690E"/>
<rect x="144.458" y="14.7235" width="8.68214" height="1.78221" transform="rotate(106.43 144.458 14.7235)" fill="#98690E"/>
<rect x="190.017" y="44.6969" width="8.68214" height="1.78221" transform="rotate(142.351 190.017 44.6969)" fill="#98690E"/>
<rect x="213.03" y="93.4743" width="8.68214" height="1.78221" transform="rotate(170.568 213.03 93.4743)" fill="#98690E"/>
<rect x="23.5837" y="57" width="8.68214" height="1.78221" transform="rotate(38.0209 23.5837 57)" fill="#64980E"/>
<rect x="64.7761" y="21.4942" width="8.68214" height="1.78221" transform="rotate(69.3222 64.7761 21.4942)" fill="#C5B30E"/>
<rect x="116.717" y="10.8057" width="8.68214" height="1.78221" transform="rotate(96.7506 116.717 10.8057)" fill="#98690E"/>
<rect x="168.612" y="25.7746" width="8.68214" height="1.78221" transform="rotate(125.786 168.612 25.7746)" fill="#98690E"/>
<rect x="203.094" y="67.8164" width="8.68214" height="1.78221" transform="rotate(161.707 203.094 67.8164)" fill="#98690E"/>
<rect x="11.6965" y="74.2397" width="10.7759" height="1.78221" transform="rotate(21.2957 11.6965 74.2397)" fill="#49820E"/>
<rect x="45.6624" y="30.0487" width="10.7759" height="1.78221" transform="rotate(52.5971 45.6624 30.0487)" fill="#A4A80B"/>
<rect x="95.8118" y="9.59402" width="10.7759" height="1.78221" transform="rotate(80.0255 95.8118 9.59402)" fill="#82620E"/>
<rect x="150.921" y="14.5685" width="10.7759" height="1.78221" transform="rotate(109.061 150.921 14.5685)" fill="#82620E"/>
<rect x="195.342" y="48.3632" width="10.7759" height="1.78221" transform="rotate(144.981 195.342 48.3632)" fill="#82620E"/>
<rect x="215.989" y="99.2227" width="10.7759" height="1.78221" transform="rotate(173.198 215.989 99.2227)" fill="#82620E"/>
<defs>
<filter id="filter0_i_2_55" x="81.8862" y="0" width="141.114" height="104" filterUnits="userSpaceOnUse" color-interpolation-filters="sRGB">
<feFlood flood-opacity="0" result="BackgroundImageFix"/>
<feBlend mode="normal" in="SourceGraphic" in2="BackgroundImageFix" result="shape"/>
<feColorMatrix in="SourceAlpha" type="matrix" values="0 0 0 0 0 0 0 0 0 0 0 0 0 0 0 0 0 0 127 0" result="hardAlpha"/>
<feOffset dy="2"/>
<feGaussianBlur stdDeviation="7.5"/>
<feComposite in2="hardAlpha" operator="arithmetic" k2="-1" k3="1"/>
<feColorMatrix type="matrix" values="0 0 0 0 0 0 0 0 0 0 0 0 0 0 0 0 0 0 0.2 0"/>
<feBlend mode="normal" in2="shape" result="effect1_innerShadow_2_55"/>
</filter>
<filter id="filter1_i_2_55" x="36.1956" y="3.64679" width="63.9731" height="71.5064" filterUnits="userSpaceOnUse" color-interpolation-filters="sRGB">
<feFlood flood-opacity="0" result="BackgroundImageFix"/>
<feBlend mode="normal" in="SourceGraphic" in2="BackgroundImageFix" result="shape"/>
<feColorMatrix in="SourceAlpha" type="matrix" values="0 0 0 0 0 0 0 0 0 0 0 0 0 0 0 0 0 0 127 0" result="hardAlpha"/>
<feOffset dy="2"/>
<feGaussianBlur stdDeviation="7.5"/>
<feComposite in2="hardAlpha" operator="arithmetic" k2="-1" k3="1"/>
<feColorMatrix type="matrix" values="0 0 0 0 0 0 0 0 0 0 0 0 0 0 0 0 0 0 0.2 0"/>
<feBlend mode="normal" in2="shape" result="effect1_innerShadow_2_55"/>
</filter>
<filter id="filter2_i_2_55" x="0" y="26.6908" width="82.6616" height="77.2915" filterUnits="userSpaceOnUse" color-interpolation-filters="sRGB">
<feFlood flood-opacity="0" result="BackgroundImageFix"/>
<feBlend mode="normal" in="SourceGraphic" in2="BackgroundImageFix" result="shape"/>
<feColorMatrix in="SourceAlpha" type="matrix" values="0 0 0 0 0 0 0 0 0 0 0 0 0 0 0 0 0 0 127 0" result="hardAlpha"/>
<feOffset dy="2"/>
<feGaussianBlur stdDeviation="7.5"/>
<feComposite in2="hardAlpha" operator="arithmetic" k2="-1" k3="1"/>
<feColorMatrix type="matrix" values="0 0 0 0 0 0 0 0 0 0 0 0 0 0 0 0 0 0 0.2 0"/>
<feBlend mode="normal" in2="shape" result="effect1_innerShadow_2_55"/>
</filter>
</defs>
</svg>
