<svg width="25" height="21" viewBox="0 0 25 21" fill="none" xmlns="http://www.w3.org/2000/svg">
<path d="M24.5211 11.2071L15.3287 20.3995C15.1412 20.587 14.8868 20.6924 14.6216 20.6924C14.3564 20.6924 14.102 20.587 13.9145 20.3995C13.7269 20.2119 13.6216 19.9576 13.6216 19.6924C13.6216 19.4272 13.7269 19.1728 13.9145 18.9853L21.4001 11.4997L1.18656 11.5005C0.921197 11.5005 0.666702 11.3951 0.479061 11.2075C0.291421 11.0198 0.186005 10.7653 0.186005 10.5C0.186006 10.2346 0.291421 9.98012 0.479062 9.79248C0.666702 9.60484 0.921198 9.49943 1.18656 9.49943L21.4001 9.50031L13.9145 2.0147C13.7269 1.82717 13.6216 1.57281 13.6216 1.30759C13.6216 1.04238 13.7269 0.788024 13.9145 0.600488C14.102 0.412952 14.3564 0.307595 14.6216 0.307595C14.8868 0.307595 15.1412 0.412951 15.3287 0.600488L24.5211 9.79288C24.7086 9.98041 24.814 10.2348 24.814 10.5C24.814 10.7652 24.7086 11.0196 24.5211 11.2071Z" fill="#00B612"/>
</svg>
